<?xml version="1.0" encoding="utf-8"?>
<!-- Generator: Adobe Illustrator 16.0.0, SVG Export Plug-In . SVG Version: 6.00 Build 0)  -->
<!DOCTYPE svg PUBLIC "-//W3C//DTD SVG 1.1//EN" "http://www.w3.org/Graphics/SVG/1.1/DTD/svg11.dtd">
<svg version="1.1" id="Calque_1" xmlns="http://www.w3.org/2000/svg" xmlns:xlink="http://www.w3.org/1999/xlink" x="0px" y="0px"
	 width="354.974px" height="97.829px" viewBox="0 0 354.974 97.829" enable-background="new 0 0 354.974 97.829"
	 xml:space="preserve">
<rect x="177.488" y="79.03" fill="#EE8031" width="59.162" height="18.799"/>
<rect x="236.65" y="79.03" fill="#254391" width="118.324" height="18.799"/>
<rect x="118.326" y="79.03" fill="#EA654F" width="59.162" height="18.799"/>
<rect x="0.001" y="79.03" fill="#C6391B" width="59.163" height="18.799"/>
<rect x="59.164" y="79.03" fill="#E74E29" width="59.162" height="18.799"/>
<polygon fill="#3E7FBB" points="177.488,70.839 177.488,74.935 177.488,79.03 236.65,79.03 236.65,74.935 236.65,70.839 "/>
<polygon fill="#DDC667" points="236.65,70.839 236.65,74.935 236.65,79.03 295.812,79.03 295.812,74.935 295.812,70.839 "/>
<polygon fill="#645E81" points="295.812,70.839 295.812,74.935 295.812,79.03 354.974,79.03 354.974,74.935 354.974,70.839 "/>
<polygon fill="#58B279" points="118.326,70.839 118.326,74.935 118.326,79.03 177.486,79.03 177.486,74.935 177.486,70.839 "/>
<polygon fill="#6AC5DD" points="0,70.839 0,74.935 0,79.03 118.326,79.03 118.326,74.935 118.326,70.839 "/>
<g>
	<path fill="#211E1E" d="M10.657,7.479h10.378l-4.457,23.059h6.139l4.456-23.059H37.55L26.892,62.384H16.516l4.487-23.059h-6.139
		l-4.487,23.059H0L10.657,7.479z"/>
	<path fill="#211E1E" d="M63.185,51.51c-1.539,7.896-6.794,11.851-15.769,11.872c-7.645,0-11.468-2.887-11.468-8.663
		c0-0.976,0.114-2.046,0.343-3.209l8.54-43.907h10.375L46.668,51.51c-0.395,2.057,0.425,3.086,2.462,3.086
		c2.056,0,3.282-1.029,3.677-3.086l8.537-43.907h10.378L63.185,51.51z"/>
	<path fill="#211E1E" d="M79.002,7.479h10.252l1.683,27.049l5.235-27.049h9.722L95.237,62.384H84.984l-1.495-26.299l-5.11,26.299
		H68.345L79.002,7.479z"/>
	<path fill="#211E1E" d="M122.305,30.662h12.963l-4.051,20.848c-1.538,7.896-6.792,11.851-15.768,11.872
		c-7.645,0-11.467-2.887-11.467-8.663c0-0.976,0.114-2.046,0.343-3.209l6.388-32.906c1.538-7.896,6.784-11.843,15.737-11.843
		c7.666,0,11.498,2.877,11.498,8.632c0,0.978-0.114,2.048-0.342,3.211l-1.496,7.79h-10.376l1.496-7.79
		c0.415-2.057-0.396-3.096-2.431-3.117h-0.062c-2.015,0-3.231,1.039-3.646,3.117l-6.388,32.906
		c-0.395,2.057,0.426,3.086,2.462,3.086c2.056,0,3.283-1.029,3.677-3.086l2.337-12.06h-2.587L122.305,30.662z"/>
	<path fill="#211E1E" d="M159.021,62.384h-10.439l7.292-22.279L169.99,0h7.163h6.3l-1.467,40.011l-1.402,22.373h-10.469
		l2.587-41.817L159.021,62.384z"/>
	<path fill="#211E1E" d="M196.029,7.479h13.617c7.064,0.021,10.596,2.846,10.596,8.476c0,1.039-0.125,2.17-0.374,3.396l-1.558,8.102
		c-0.977,4.966-3.864,8.186-8.664,9.66l5.08,25.271h-11.312l-2.524-23.62h-0.562l-4.581,23.62h-10.377L196.029,7.479z
		 M204.724,16.235l-2.775,14.302h1.248c1.121,0,1.858-0.051,2.211-0.155c1.393-0.456,2.233-1.434,2.524-2.93l1.56-8.102
		c0.414-2.076-0.396-3.115-2.432-3.115H204.724z"/>
	<path fill="#211E1E" d="M246.125,51.51c-1.539,7.896-6.792,11.851-15.768,11.872c-7.646,0-11.467-2.887-11.467-8.663
		c0-0.976,0.113-2.046,0.342-3.209l6.389-32.906c1.537-7.896,6.783-11.843,15.736-11.843c7.665,0,11.498,2.877,11.498,8.632
		c0,0.978-0.114,2.048-0.342,3.211L246.125,51.51z M242.136,18.604c0.416-2.057-0.396-3.096-2.431-3.117h-0.063
		c-2.015,0-3.23,1.039-3.646,3.117l-6.388,32.906c-0.395,2.057,0.426,3.086,2.461,3.086c2.057,0,3.283-1.029,3.678-3.086
		L242.136,18.604z"/>
	<path fill="#211E1E" d="M279.674,51.51c-1.538,7.896-6.794,11.851-15.769,11.872c-7.645,0-11.469-2.887-11.469-8.663
		c0-0.976,0.115-2.046,0.345-3.209l8.538-43.907h10.377l-8.539,43.907c-0.395,2.057,0.426,3.086,2.463,3.086
		c2.057,0,3.281-1.029,3.676-3.086l8.538-43.907h10.378L279.674,51.51z"/>
	<path fill="#211E1E" d="M295.492,7.479h10.252l1.682,27.049l5.236-27.049h9.723l-10.658,54.905h-10.252l-1.496-26.299
		l-5.109,26.299h-10.034L295.492,7.479z"/>
	<path fill="#211E1E" d="M329.976,7.479h14.365c7.063,0.021,10.596,2.846,10.596,8.476c0,1.039-0.125,2.17-0.375,3.396
		l-6.045,31.193c-1.537,7.872-6.659,11.82-15.363,11.84h-13.836L329.976,7.479z M338.671,16.235l-7.263,37.394h3.085
		c2.037,0,3.252-1.028,3.646-3.085l6.046-31.193c0.415-2.076-0.396-3.115-2.431-3.115H338.671z"/>
</g>
</svg>
