<?xml version="1.0" encoding="utf-8"?>
<!-- Generator: Adobe Illustrator 16.0.0, SVG Export Plug-In . SVG Version: 6.00 Build 0)  -->
<!DOCTYPE svg PUBLIC "-//W3C//DTD SVG 1.1//EN" "http://www.w3.org/Graphics/SVG/1.1/DTD/svg11.dtd">
<svg version="1.1" id="Calque_1" xmlns="http://www.w3.org/2000/svg" xmlns:xlink="http://www.w3.org/1999/xlink" x="0px" y="0px"
	 width="73.85px" height="50.132px" viewBox="0 0 73.85 50.132" enable-background="new 0 0 73.85 50.132" xml:space="preserve">
<g>
	<path fill="#645E81" d="M37.67,30.594c0.988,0,1.94,0.15,2.838,0.427c2.133-4.646,6.813-7.879,12.26-7.879
		c6.533,0,11.98,4.644,13.227,10.81c0.108-0.005,0.215-0.017,0.325-0.017c1.668,0,3.217,0.51,4.501,1.381
		c1.009-1.801,1.59-3.873,1.59-6.083c0-6.885-5.582-12.467-12.467-12.467c-0.171,0-0.337,0.019-0.507,0.025
		C57.503,7.214,49.042,0.001,38.894,0.001c-8.46,0-15.73,5.022-19.042,12.239c-1.394-0.43-2.874-0.663-4.408-0.663
		c-8.256,0-14.949,6.693-14.949,14.949c0,8.169,6.555,14.796,14.69,14.937l-0.011,0.006l0.186,0.003
		c0.028,0,0.056,0.004,0.085,0.004c0.017,0,0.032-0.002,0.049-0.003l0.108,0.002l12.57,0.238c-0.076-0.488-0.127-0.984-0.127-1.493
		C28.045,34.904,32.354,30.594,37.67,30.594z"/>
	<path fill="#8784B2" d="M74.346,41.962c0-2.765-1.398-5.203-3.526-6.646c-1.284-0.871-2.833-1.381-4.501-1.381
		c-0.11,0-0.217,0.012-0.325,0.017c-1.246-6.166-6.693-10.81-13.227-10.81c-5.446,0-10.127,3.233-12.26,7.879
		c-0.897-0.276-1.85-0.427-2.838-0.427c-5.315,0-9.625,4.31-9.625,9.625c0,0.509,0.051,1.005,0.127,1.493
		c0.71,4.55,4.599,8.041,9.33,8.123l-0.007,0.004l0.108,0.002c0.022,0,0.044,0.003,0.066,0.003c0.013,0,0.024-0.002,0.037-0.002
		l0.064,0.001l14.851,0.281c0.049,0.001,0.097,0.008,0.146,0.008c0.022,0,0.044-0.003,0.066-0.003l0.073,0.001l13.495-0.142
		l-0.006-0.004C70.793,49.943,74.346,46.369,74.346,41.962z"/>
</g>
</svg>
