<?xml version="1.0" encoding="utf-8"?>
<!-- Generator: Adobe Illustrator 16.0.0, SVG Export Plug-In . SVG Version: 6.00 Build 0)  -->
<!DOCTYPE svg PUBLIC "-//W3C//DTD SVG 1.1//EN" "http://www.w3.org/Graphics/SVG/1.1/DTD/svg11.dtd">
<svg version="1.1" id="Calque_1" xmlns="http://www.w3.org/2000/svg" xmlns:xlink="http://www.w3.org/1999/xlink" x="0px" y="0px"
	 width="83.554px" height="59.886px" viewBox="0 0 83.554 59.886" enable-background="new 0 0 83.554 59.886" xml:space="preserve">
<circle fill="#244291" cx="56.937" cy="26.617" r="26.617"/>
<path fill="#645E81" d="M59.231,34.81c-0.13,0.003-0.255,0.021-0.384,0.026c-2.033-9.647-10.671-16.807-20.893-16.616
	c-8.381,0.158-15.5,5.226-18.718,12.399c-1.446-0.433-2.98-0.658-4.57-0.628C6.413,30.148-0.154,36.964,0.003,45.22
	c0.152,8.115,6.748,14.582,14.815,14.651l-0.016,0.009l0.427,0.004l23.515,0.25L59.7,59.738c6.884-0.127,12.36-5.812,12.23-12.697
	S66.116,34.681,59.231,34.81z"/>
</svg>
