<?xml version="1.0" encoding="utf-8"?>
<!-- Generator: Adobe Illustrator 16.0.0, SVG Export Plug-In . SVG Version: 6.00 Build 0)  -->
<!DOCTYPE svg PUBLIC "-//W3C//DTD SVG 1.1//EN" "http://www.w3.org/Graphics/SVG/1.1/DTD/svg11.dtd">
<svg version="1.1" id="Calque_1" xmlns="http://www.w3.org/2000/svg" xmlns:xlink="http://www.w3.org/1999/xlink" x="0px" y="0px"
	 width="71.912px" height="63.911px" viewBox="0.496 0 71.912 63.911" enable-background="new 0.496 0 71.912 63.911"
	 xml:space="preserve">
<g>
	<path fill="#645E81" d="M59.81,16.768c-0.13,0.001-0.255,0.018-0.384,0.023C57.473,7.128,48.895-0.106,38.673,0.001
		c-8.381,0.088-15.542,5.097-18.821,12.243c-1.442-0.445-2.975-0.682-4.565-0.666c-8.255,0.086-14.878,6.85-14.79,15.104
		c0.084,8.117,6.627,14.641,14.694,14.774l-0.017,0.01l0.427,0.007l23.512,0.446l20.959-0.221
		c6.885-0.072,12.408-5.712,12.336-12.597C72.335,22.217,66.697,16.695,59.81,16.768z"/>
	<path fill="#3F7FBB" d="M21.081,51.411c3.773,0,0-7.125,0-7.125S17.309,51.411,21.081,51.411z"/>
	<path fill="#3F7FBB" d="M40.57,51.411c3.771,0,0-7.125,0-7.125S36.796,51.411,40.57,51.411z"/>
	<path fill="#3F7FBB" d="M53.966,56.943c5.859,0,0-11.064,0-11.064S48.109,56.943,53.966,56.943z"/>
	<path fill="#3F7FBB" d="M30.392,63.911c5.859,0,0-11.064,0-11.064S24.534,63.911,30.392,63.911z"/>
</g>
</svg>
