<?xml version="1.0" encoding="utf-8"?>
<!-- Generator: Adobe Illustrator 16.0.0, SVG Export Plug-In . SVG Version: 6.00 Build 0)  -->
<!DOCTYPE svg PUBLIC "-//W3C//DTD SVG 1.1//EN" "http://www.w3.org/Graphics/SVG/1.1/DTD/svg11.dtd">
<svg version="1.1" id="Calque_1" xmlns="http://www.w3.org/2000/svg" xmlns:xlink="http://www.w3.org/1999/xlink" x="0px" y="0px"
	 width="71.933px" height="76.52px" viewBox="0 0 71.933 76.52" enable-background="new 0 0 71.933 76.52" xml:space="preserve">
<path fill="#645E81" d="M59.231,16.593c-0.13,0.002-0.256,0.021-0.384,0.027C56.813,6.973,48.176-0.188,37.955,0.004
	c-8.381,0.158-15.499,5.226-18.718,12.398c-1.446-0.433-2.98-0.658-4.57-0.628C6.413,11.931-0.154,18.748,0.003,27.003
	c0.152,8.115,6.748,14.582,14.815,14.651l-0.016,0.009l0.427,0.004l23.515,0.25L59.7,41.521c6.884-0.127,12.36-5.812,12.23-12.697
	C71.801,21.938,66.116,16.464,59.231,16.593z"/>
<polygon fill="#DCC668" points="22.756,53.72 18.935,53.72 20.091,44.562 14.631,57.425 18.452,57.425 17.296,66.582 "/>
<polygon fill="#DCC668" points="42.976,57.853 37.43,57.853 39.107,44.562 31.184,63.23 36.729,63.23 35.052,76.521 "/>
<polygon fill="#DCC668" points="56.103,50.679 53.55,50.679 54.322,44.562 50.676,53.154 53.228,53.154 52.456,59.271 "/>
</svg>
