<?xml version="1.0" encoding="utf-8"?>
<!-- Generator: Adobe Illustrator 16.0.0, SVG Export Plug-In . SVG Version: 6.00 Build 0)  -->
<!DOCTYPE svg PUBLIC "-//W3C//DTD SVG 1.1//EN" "http://www.w3.org/Graphics/SVG/1.1/DTD/svg11.dtd">
<svg version="1.1" id="Calque_1" xmlns="http://www.w3.org/2000/svg" xmlns:xlink="http://www.w3.org/1999/xlink" x="0px" y="0px"
	 width="71.419px" height="71.418px" viewBox="0 0 71.419 71.418" enable-background="new 0 0 71.419 71.418" xml:space="preserve">
<g>
	<path fill="#DDC667" d="M53.221,39.192l18.198-3.483l-18.198-3.483l15.479-10.183l-18.146,3.746l10.405-15.33L45.629,20.863
		l3.746-18.146L39.193,18.197L35.709,0l-3.483,18.197L22.044,2.718l3.746,18.146L10.459,10.459l10.405,15.33L2.718,22.043
		l15.479,10.183L0,35.709l18.198,3.483L2.718,49.375l18.146-3.746l-10.405,15.33L25.79,50.555L22.044,68.7l10.182-15.479
		l3.483,18.197l3.483-18.197L49.375,68.7l-3.746-18.146L60.96,60.959l-10.405-15.33l18.146,3.746L53.221,39.192z M35.709,48.834
		c-7.237,0-13.125-5.888-13.125-13.125s5.888-13.125,13.125-13.125s13.125,5.888,13.125,13.125S42.947,48.834,35.709,48.834z"/>
	<circle fill="#DDC667" cx="35.709" cy="35.709" r="11.125"/>
</g>
</svg>
