<?xml version="1.0" encoding="utf-8"?>
<!-- Generator: Adobe Illustrator 16.0.0, SVG Export Plug-In . SVG Version: 6.00 Build 0)  -->
<!DOCTYPE svg PUBLIC "-//W3C//DTD SVG 1.1//EN" "http://www.w3.org/Graphics/SVG/1.1/DTD/svg11.dtd">
<svg version="1.1" id="Calque_1" xmlns="http://www.w3.org/2000/svg" xmlns:xlink="http://www.w3.org/1999/xlink" x="0px" y="0px"
	 width="71.418px" height="71.418px" viewBox="0 0 71.418 71.418" enable-background="new 0 0 71.418 71.418" xml:space="preserve">
<g>
	<path fill="#DCC668" d="M53.221,39.192l18.197-3.483l-18.197-3.483l15.48-10.183l-18.146,3.746l10.404-15.33l-15.33,10.404
		l3.746-18.146L39.194,18.197L35.709,0l-3.482,18.197L22.044,2.718l3.746,18.146L10.459,10.459l10.404,15.33L2.718,22.043
		l15.479,10.183L0,35.709l18.197,3.483L2.718,49.375l18.145-3.746l-10.404,15.33L25.79,50.555L22.044,68.7l10.183-15.479
		l3.482,18.197l3.485-18.197L49.375,68.7l-3.746-18.146l15.33,10.404l-10.404-15.33l18.146,3.746L53.221,39.192z M35.709,48.834
		c-7.237,0-13.125-5.888-13.125-13.125s5.888-13.125,13.125-13.125c7.238,0,13.125,5.888,13.125,13.125S42.947,48.834,35.709,48.834
		z"/>
	<circle fill="#DCC668" cx="35.709" cy="35.709" r="11.125"/>
	<path fill="#FFFFFF" d="M35.709,22.584c-7.237,0-13.125,5.888-13.125,13.125s5.888,13.125,13.125,13.125
		c7.238,0,13.125-5.888,13.125-13.125S42.947,22.584,35.709,22.584z M35.709,46.834c-6.144,0-11.125-4.98-11.125-11.125
		s4.981-11.125,11.125-11.125c6.145,0,11.125,4.98,11.125,11.125S41.854,46.834,35.709,46.834z"/>
</g>
</svg>
