<?xml version="1.0" encoding="utf-8"?>
<!-- Generator: Adobe Illustrator 16.0.0, SVG Export Plug-In . SVG Version: 6.00 Build 0)  -->
<!DOCTYPE svg PUBLIC "-//W3C//DTD SVG 1.1//EN" "http://www.w3.org/Graphics/SVG/1.1/DTD/svg11.dtd">
<svg version="1.1" id="Calque_1" xmlns="http://www.w3.org/2000/svg" xmlns:xlink="http://www.w3.org/1999/xlink" x="0px" y="0px"
	 width="97.197px" height="78.627px" viewBox="0 0 97.197 78.627" enable-background="new 0 0 97.197 78.627" xml:space="preserve">
<g>
	<path fill="#DCC668" d="M79,39.192l18.196-3.482L79,32.226l15.479-10.182L76.334,25.79l10.403-15.331L71.408,20.864l3.745-18.146
		L64.97,18.198L61.489,0l-3.483,18.198L47.824,2.718l3.744,18.146L36.238,10.459L46.644,25.79l-18.146-3.746l15.48,10.182
		L25.779,35.71l18.199,3.482l-15.48,10.183l18.146-3.746L36.238,60.96l15.331-10.404L47.824,68.7l10.181-15.479l3.483,18.196
		l3.482-18.196L75.155,68.7l-3.745-18.145l15.329,10.403l-10.404-15.33l18.145,3.746L79,39.192z M61.489,48.835
		c-7.236,0-13.125-5.889-13.125-13.125c0-7.237,5.889-13.125,13.125-13.125c7.237,0,13.125,5.888,13.125,13.125
		C74.614,42.946,68.726,48.835,61.489,48.835z"/>
	<circle fill="#DCC668" cx="61.489" cy="35.71" r="11.125"/>
	<path fill="#FFFFFF" d="M61.489,22.585c-7.236,0-13.125,5.888-13.125,13.125c0,7.236,5.889,13.125,13.125,13.125
		c7.237,0,13.125-5.889,13.125-13.125C74.614,28.473,68.726,22.585,61.489,22.585z M61.489,46.835
		c-6.145,0-11.125-4.98-11.125-11.125c0-6.145,4.98-11.125,11.125-11.125c6.146,0,11.125,4.98,11.125,11.125
		C72.614,41.854,67.633,46.835,61.489,46.835z"/>
</g>
<g>
	<path fill="#645E81" d="M37.173,59.09c0.987,0,1.939,0.149,2.836,0.426c2.132-4.646,6.813-7.88,12.26-7.88
		c6.534,0,11.981,4.645,13.227,10.812c0.108-0.005,0.216-0.017,0.325-0.017c1.668,0,3.218,0.51,4.501,1.381
		c1.01-1.801,1.591-3.873,1.591-6.084c0-6.885-5.582-12.467-12.468-12.467c-0.171,0-0.337,0.019-0.506,0.025
		c-1.934-9.578-10.395-16.791-20.543-16.791c-8.459,0-15.73,5.022-19.042,12.238c-1.393-0.43-2.872-0.662-4.406-0.662
		C6.693,40.071,0,46.765,0,55.021c0,8.168,6.553,14.795,14.688,14.936l-0.01,0.006l0.159,0.002c0.038,0.001,0.074,0.006,0.111,0.006
		c0.021,0,0.042-0.003,0.063-0.003l0.092,0.001l12.572,0.239c-0.076-0.488-0.127-0.984-0.127-1.493
		C27.549,63.399,31.858,59.09,37.173,59.09z"/>
	<path fill="#8784B2" d="M73.849,70.458c0-2.766-1.398-5.203-3.526-6.646c-1.283-0.871-2.833-1.381-4.501-1.381
		c-0.109,0-0.217,0.012-0.325,0.017c-1.245-6.167-6.692-10.812-13.227-10.812c-5.447,0-10.128,3.233-12.26,7.88
		c-0.897-0.276-1.849-0.426-2.836-0.426c-5.315,0-9.624,4.31-9.624,9.624c0,0.509,0.051,1.005,0.127,1.493
		c0.71,4.551,4.6,8.042,9.332,8.122L37,78.334l0.133,0.002c0.014,0,0.026,0.002,0.04,0.002c0.008,0,0.015-0.001,0.022-0.001
		l0.079,0.001l14.909,0.284c0.029,0,0.057,0.004,0.086,0.004c0.013,0,0.025-0.002,0.039-0.002l0.103,0.002l13.393-0.142
		c0.006,0,0.012,0.001,0.018,0.001c0.009,0,0.018-0.001,0.027-0.001l0.056-0.001l-0.003-0.002
		C70.298,78.438,73.849,74.864,73.849,70.458z"/>
</g>
</svg>
