<?xml version="1.0" encoding="utf-8"?>
<!-- Generator: Adobe Illustrator 16.0.0, SVG Export Plug-In . SVG Version: 6.00 Build 0)  -->
<!DOCTYPE svg PUBLIC "-//W3C//DTD SVG 1.1//EN" "http://www.w3.org/Graphics/SVG/1.1/DTD/svg11.dtd">
<svg version="1.1" id="Calque_1" xmlns="http://www.w3.org/2000/svg" xmlns:xlink="http://www.w3.org/1999/xlink" x="0px" y="0px"
	 width="90.953px" height="93.445px" viewBox="0 0 90.953 93.445" enable-background="new 0 0 90.953 93.445" xml:space="preserve">
<g>
	<polygon fill="#DCC668" points="55.74,0 59.225,18.198 69.406,2.718 65.659,20.864 80.99,10.459 70.585,25.79 88.732,22.044 
		73.251,32.226 91.447,35.71 73.251,39.192 88.732,49.375 70.585,45.629 80.99,60.96 65.659,50.556 69.406,68.7 59.225,53.222 
		55.74,71.419 52.257,53.222 42.074,68.7 45.82,50.556 30.49,60.96 40.894,45.629 22.749,49.375 38.228,39.192 20.031,35.71 
		38.228,32.226 22.749,22.044 40.894,25.79 30.49,10.459 45.82,20.864 42.074,2.718 52.257,18.198 	"/>
	<g>
		<path fill="#DCC668" d="M55.74,47.835c-6.686,0-12.125-5.439-12.125-12.125c0-6.687,5.439-12.125,12.125-12.125
			s12.125,5.438,12.125,12.125C67.865,42.396,62.425,47.835,55.74,47.835z"/>
		<path fill="#FFFFFF" d="M55.74,24.585c6.145,0,11.125,4.979,11.125,11.125c0,6.144-4.98,11.125-11.125,11.125
			S44.615,41.854,44.615,35.71C44.615,29.565,49.596,24.585,55.74,24.585 M55.74,22.585c-7.237,0-13.125,5.888-13.125,13.125
			c0,7.236,5.888,13.125,13.125,13.125c7.238,0,13.125-5.889,13.125-13.125C68.865,28.473,62.979,22.585,55.74,22.585L55.74,22.585z
			"/>
	</g>
</g>
<path fill="#645E81" d="M72.408,58.769c0-6.885-5.582-12.467-12.467-12.467c-0.171,0-0.336,0.019-0.505,0.025
	c-1.934-9.579-10.396-16.792-20.543-16.792c-8.46,0-15.73,5.021-19.042,12.238c-1.393-0.429-2.872-0.662-4.406-0.662
	c-8.256,0-14.949,6.693-14.949,14.949c0,8.168,6.554,14.796,14.689,14.937l-0.011,0.006l0.186,0.003
	c0.029,0,0.056,0.004,0.085,0.004c0.017,0,0.032-0.002,0.048-0.002l0.108,0.001l23.098,0.438c0.065,0.001,0.129,0.01,0.194,0.01
	c0.03,0,0.059-0.004,0.088-0.005l0.131,0.003l20.819-0.221c0.004,0,0.007,0.001,0.01,0.001c0.005,0,0.01-0.001,0.015-0.001
	l0.116-0.001l-0.007-0.004C66.893,71.162,72.408,65.613,72.408,58.769z"/>
<path fill="#3F7FBB" d="M21.082,73.821c0,0,3.773,7.125,0,7.125C17.31,80.946,21.082,73.821,21.082,73.821z"/>
<path fill="#3F7FBB" d="M53.966,75.414c0,0,5.859,11.063,0,11.063C48.107,86.479,53.966,75.414,53.966,75.414z"/>
<path fill="#3F7FBB" d="M30.392,82.382c0,0,5.859,11.063,0,11.063C24.535,93.446,30.392,82.382,30.392,82.382z"/>
<path fill="#3F7FBB" d="M40.57,73.821c0,0,3.771,7.125,0,7.125C36.797,80.946,40.57,73.821,40.57,73.821z"/>
</svg>
