<?xml version="1.0" encoding="utf-8"?>
<!-- Generator: Adobe Illustrator 16.0.0, SVG Export Plug-In . SVG Version: 6.00 Build 0)  -->
<!DOCTYPE svg PUBLIC "-//W3C//DTD SVG 1.1//EN" "http://www.w3.org/Graphics/SVG/1.1/DTD/svg11.dtd">
<svg version="1.1" id="Calque_1" xmlns="http://www.w3.org/2000/svg" xmlns:xlink="http://www.w3.org/1999/xlink" x="0px" y="0px"
	 width="42.571px" height="42.573px" viewBox="0 0 42.571 42.573" enable-background="new 0 0 42.571 42.573" xml:space="preserve">
<g>
	<path fill="#211E1E" d="M6.233,6.234c-8.312,8.312-8.311,21.79,0.001,30.102c8.314,8.314,21.79,8.315,30.104,0.002
		c8.312-8.314,8.311-21.79-0.001-30.104C28.022-2.078,14.547-2.079,6.233,6.234z M30.361,10.597l1.613,1.614l0.6,0.599L24.1,21.284
		l8.479,8.478l-0.602,0.601l-1.613,1.614l-0.603,0.602l-8.477-8.478l-8.475,8.475l-0.6-0.599l-1.613-1.614l-0.6-0.598l8.476-8.475
		l-8.479-8.478l0.603-0.602l1.613-1.613l0.601-0.602l8.479,8.478l8.473-8.474L30.361,10.597z"/>
</g>
</svg>
