<?xml version="1.0" encoding="utf-8"?>
<!-- Generator: Adobe Illustrator 16.0.0, SVG Export Plug-In . SVG Version: 6.00 Build 0)  -->
<!DOCTYPE svg PUBLIC "-//W3C//DTD SVG 1.1//EN" "http://www.w3.org/Graphics/SVG/1.1/DTD/svg11.dtd">
<svg version="1.1" id="Calque_1" xmlns="http://www.w3.org/2000/svg" xmlns:xlink="http://www.w3.org/1999/xlink" x="0px" y="0px"
	 width="41.75px" height="40.893px" viewBox="0 0 41.75 40.893" enable-background="new 0 0 41.75 40.893" xml:space="preserve">
<g>
	<path fill="#211E1E" d="M37.75,0H4C1.791,0,0,1.791,0,4v23.921c0,2.209,1.791,4,4,4h4.417v8.972l7.311-8.972H37.75
		c2.209,0,4-1.791,4-4V4C41.75,1.791,39.959,0,37.75,0z M20.875,26.139c-5.621,0-10.178-4.557-10.178-10.178
		S15.254,5.783,20.875,5.783s10.178,4.557,10.178,10.178S26.496,26.139,20.875,26.139z"/>
	<circle fill="#FFFFFF" cx="20.875" cy="15.961" r="10.178"/>
</g>
</svg>
