<?xml version="1.0" encoding="utf-8"?>
<!-- Generator: Adobe Illustrator 16.0.0, SVG Export Plug-In . SVG Version: 6.00 Build 0)  -->
<!DOCTYPE svg PUBLIC "-//W3C//DTD SVG 1.1//EN" "http://www.w3.org/Graphics/SVG/1.1/DTD/svg11.dtd">
<svg version="1.1" id="Calque_1" xmlns="http://www.w3.org/2000/svg" xmlns:xlink="http://www.w3.org/1999/xlink" x="0px" y="0px"
	 width="500.685px" height="499.533px" viewBox="0 0 500.685 499.533" enable-background="new 0 0 500.685 499.533"
	 xml:space="preserve">
<g>
	<path fill="none" d="M188.991,62.79c-68.701-0.935-125.212,55.865-125.56,124.237c-0.341,67.075,53.323,124.566,122.778,125.734
		c70.528,1.187,126.702-54.935,127.272-123.169C314.072,118.868,258.52,62.79,188.991,62.79z"/>
	<path fill="#211E1E" d="M432.061,484.709c18.083,18.673,44.952,20.382,60.336,1.257c14.832-18.438,8.78-41.955-10.39-58.265
		c-30.295-25.777-57.787-54.356-88.104-80.108l0.007-0.007l-3.236-2.736c-8.335-7.08-16.665-14.168-25.001-21.248
		c-0.977-0.829-1.968-1.631-2.975-2.406l-24.173-20.439c34.367-46.573,46.658-98.763,32.689-155.541
		C352.987,71.127,305.293,24.422,231.431,4.893c-9.08-2.4-18.532-3.395-27.811-5.042c-10,0-19.998,0-29.997,0
		c-9.433,1.652-19.016,2.711-28.274,5.053C82.591,20.782,38.84,58.94,13.771,118.479c-6.79,16.126-10.731,33.079-12.218,50.561
		c-0.109,1.28-0.596,2.528-0.908,3.791c0,9.999,0,19.998,0,29.996c1.89,10.416,3.148,20.994,5.769,31.221
		c20.553,80.173,89.569,136.93,172.514,141.421c38.882,2.104,75.181-7.336,108.351-27.942c4.81-2.987,9.444-6.26,14.18-9.636
		l20.863,24.347c1.173,1.542,2.397,3.062,3.676,4.557 M186.209,312.761c-69.455-1.168-123.119-58.659-122.778-125.734
		c0.347-68.372,56.858-125.171,125.56-124.237c69.528,0,125.081,56.078,124.49,126.802
		C312.911,257.826,256.737,313.947,186.209,312.761z"/>
</g>
</svg>
