<?xml version="1.0" encoding="utf-8"?>
<!-- Generator: Adobe Illustrator 15.0.0, SVG Export Plug-In . SVG Version: 6.00 Build 0)  -->
<!DOCTYPE svg PUBLIC "-//W3C//DTD SVG 1.1//EN" "http://www.w3.org/Graphics/SVG/1.1/DTD/svg11.dtd">
<svg version="1.1" id="Calque_1" xmlns="http://www.w3.org/2000/svg" xmlns:xlink="http://www.w3.org/1999/xlink" x="0px" y="0px"
	 width="223px" height="223.333px" viewBox="0 0 223 223.333" enable-background="new 0 0 223 223.333" xml:space="preserve">
<rect x="12.405" y="96.828" transform="matrix(0.7071 0.7071 -0.7071 0.7071 87.1006 13.3758)" fill="#D0D0D0" width="30" height="30"/>
<rect x="54.83" y="96.828" transform="matrix(0.7071 0.7071 -0.7071 0.7071 99.5268 -16.6238)" fill="#DCC668" width="30" height="30"/>
<rect x="75.855" y="75.615" transform="matrix(0.7071 0.7071 -0.7071 0.7071 90.685 -37.7034)" fill="#D0D0D0" width="30" height="30"/>
<rect x="97.332" y="96.828" transform="matrix(0.7071 0.7071 -0.7071 0.7071 111.9754 -46.6772)" fill="#DCC668" width="30" height="30"/>
<polygon fill="#DCC668" points="133.093,154.586 111.54,133.374 133.093,112.161 154.646,133.374 "/>
<rect x="97.332" y="54.402" transform="matrix(0.7071 0.7071 -0.7071 0.7071 81.9758 -59.1034)" fill="#DCC668" width="30" height="30"/>
<rect x="54.782" y="139.316" transform="matrix(0.7071 0.7071 -0.7071 0.7071 129.5523 -4.1462)" fill="#E9634F" width="29.999" height="30"/>
<rect x="118.545" y="160.466" transform="matrix(0.7071 0.7071 -0.7071 0.7071 163.1875 -43.0378)" fill="#DCC668" width="30" height="29.999"/>
<rect x="161.047" y="118.041" transform="matrix(0.7071 0.7071 -0.7071 0.7071 145.6368 -85.5173)" fill="#DCC668" width="30" height="30"/>
<rect x="97.332" y="181.678" transform="matrix(0.7071 0.7071 -0.7071 0.7071 171.9738 -21.825)" fill="#E9634F" width="30" height="30"/>
<rect x="75.869" y="118.119" transform="matrix(0.7071 0.7071 -0.7071 0.7071 120.7441 -25.2646)" fill="#E9634F" width="30" height="30"/>
<rect x="118.319" y="33.796" transform="matrix(0.7071 0.7071 -0.7071 0.7071 73.5516 -79.9785)" fill="#D0D0D0" width="30" height="30"/>
<rect x="97.106" y="12.583" transform="matrix(0.7071 0.7071 -0.7071 0.7071 52.3387 -71.1918)" fill="#211E1E" width="30" height="30"/>
<rect x="182.033" y="97.434" transform="matrix(0.7071 0.7071 -0.7071 0.7071 137.2126 -106.3923)" fill="#DCC668" width="30" height="30"/>
<rect x="12.31" y="96.828" transform="matrix(0.7071 0.7071 -0.7071 0.7071 87.0729 13.4428)" fill="#D0D0D0" width="30" height="30"/>
<rect x="142.025" y="99.935" transform="matrix(0.7071 0.7071 -0.7071 0.7071 127.2627 -77.3693)" fill="#DCC668" width="30" height="30"/>
<rect x="138.025" y="95.81" transform="matrix(0.7071 0.7071 -0.7071 0.7071 123.1744 -75.7491)" fill="#DCC668" width="30" height="30"/>
<rect x="118.187" y="33.796" transform="matrix(0.7071 0.7071 -0.7071 0.7071 73.513 -79.8853)" fill="#211E1E" width="30" height="30"/>
<rect x="118.263" y="76.096" transform="matrix(0.7071 0.7071 -0.7071 0.7071 103.4465 -67.5495)" fill="#DCC668" width="30" height="30"/>
<rect x="33.523" y="118.041" transform="matrix(0.7071 0.7071 -0.7071 0.7071 108.2858 4.6561)" fill="#D0D0D0" width="30" height="30"/>
<rect x="139.437" y="55.009" transform="matrix(0.7071 0.7071 -0.7071 0.7071 94.7368 -88.6982)" fill="#DCC668" width="30" height="30"/>
<rect x="118.27" y="160.466" transform="matrix(0.7071 0.7071 -0.7071 0.7071 163.1068 -42.843)" fill="#E9634F" width="30" height="29.999"/>
<rect x="75.834" y="33.796" transform="matrix(0.7071 0.7071 -0.7071 0.7071 61.1082 -49.9375)" fill="#211E1E" width="30" height="30"/>
<rect x="96.998" y="54.967" transform="matrix(0.7071 0.7071 -0.7071 0.7071 82.2776 -58.7017)" fill="#68C4DD" width="30" height="30"/>
<rect x="56.687" y="137.503" transform="matrix(0.7071 0.7071 -0.7071 0.7071 128.8287 -6.0243)" fill="#E9634F" width="29.999" height="30"/>
<rect x="96.885" y="97.067" transform="matrix(0.7071 0.7071 -0.7071 0.7071 112.0135 -46.2908)" fill="#DCC668" width="30" height="30"/>
<rect x="33.523" y="75.781" transform="matrix(0.7071 0.7071 -0.7071 0.7071 78.4036 -7.7215)" fill="#D0D0D0" width="30" height="30"/>
<rect x="76.025" y="160.466" transform="matrix(0.7071 0.7071 -0.7071 0.7071 150.7335 -12.9712)" fill="#E9634F" width="30" height="29.999"/>
<rect x="160.613" y="76.221" transform="matrix(0.7071 0.7071 -0.7071 0.7071 115.9388 -97.4586)" fill="#DCC668" width="30" height="30"/>
<rect x="54.736" y="96.828" transform="matrix(0.7071 0.7071 -0.7071 0.7071 99.4991 -16.5568)" fill="#D0D0D0" width="30" height="30"/>
<rect x="181.825" y="97.434" transform="matrix(0.7071 0.7071 -0.7071 0.7071 137.1517 -106.2452)" fill="#DCC668" width="30" height="30"/>
<rect x="97.238" y="181.678" transform="matrix(0.7071 0.7071 -0.7071 0.7071 171.946 -21.758)" fill="#E9634F" width="30" height="30"/>
<rect x="54.548" y="54.884" transform="matrix(0.7071 0.7071 -0.7071 0.7071 69.785 -28.7094)" fill="#D0D0D0" width="30" height="30"/>
<rect x="97.011" y="12.583" transform="matrix(0.7071 0.7071 -0.7071 0.7071 52.311 -71.1248)" fill="#211E1E" width="30" height="30"/>
<rect x="75.65" y="75.99" transform="matrix(0.7071 0.7071 -0.7071 0.7071 90.8901 -37.4485)" fill="#D0D0D0" width="30" height="30"/>
<rect x="160.425" y="118.334" transform="matrix(0.7071 0.7071 -0.7071 0.7071 145.6571 -84.9908)" fill="#DCC668" width="29.999" height="30"/>
<rect x="139.363" y="139.398" transform="matrix(0.7071 0.7071 -0.7071 0.7071 154.3818 -63.9288)" fill="#DCC668" width="29.999" height="29.999"/>
<polygon fill="#E9634F" points="111.722,175.879 90.216,154.501 111.722,133.122 133.226,154.501 "/>
</svg>
