<?xml version="1.0" encoding="utf-8"?>
<!-- Generator: Adobe Illustrator 16.0.0, SVG Export Plug-In . SVG Version: 6.00 Build 0)  -->
<!DOCTYPE svg PUBLIC "-//W3C//DTD SVG 1.1//EN" "http://www.w3.org/Graphics/SVG/1.1/DTD/svg11.dtd">
<svg version="1.1" id="Calque_1" xmlns="http://www.w3.org/2000/svg" xmlns:xlink="http://www.w3.org/1999/xlink" x="0px" y="0px"
	 width="34.352px" height="31.945px" viewBox="0 0 34.352 31.945" enable-background="new 0 0 34.352 31.945" xml:space="preserve">
<path fill="#211E1E" d="M34.352,10.159C34.352,4.548,29.804,0,24.193,0C21.469,0,19,1.079,17.176,2.825
	C15.352,1.079,12.883,0,10.158,0C4.548,0,0,4.548,0,10.159c0,2.241,0.726,4.312,1.954,5.992c0.015,0.02,15.04,15.794,15.04,15.794
	s15.439-15.843,15.453-15.863C33.646,14.415,34.352,12.369,34.352,10.159z M17.04,28.43l-6.312-6.269l3.803,0.765l2.51-2.064
	l1.92,2.494l6.419-2.824L17.04,28.43z"/>
</svg>
