<?xml version="1.0" encoding="utf-8"?>
<!-- Generator: Adobe Illustrator 16.0.0, SVG Export Plug-In . SVG Version: 6.00 Build 0)  -->
<!DOCTYPE svg PUBLIC "-//W3C//DTD SVG 1.1//EN" "http://www.w3.org/Graphics/SVG/1.1/DTD/svg11.dtd">
<svg version="1.1" id="Calque_1" xmlns="http://www.w3.org/2000/svg" xmlns:xlink="http://www.w3.org/1999/xlink" x="0px" y="0px"
	 width="41.75px" height="40.893px" viewBox="0 0 41.75 40.893" enable-background="new 0 0 41.75 40.893" xml:space="preserve">
<g>
	<path fill="#FFFFFF" d="M37.75,0H4C1.791,0,0,1.791,0,4v23.921c0,2.209,1.791,4,4,4h4.417v8.972l7.311-8.972H37.75
		c2.209,0,4-1.791,4-4V4C41.75,1.791,39.959,0,37.75,0z M20.875,25.151c-0.336,0-0.665-0.02-0.992-0.056
		c-3.176-0.341-5.86-2.302-7.226-5.038c-0.618-1.234-0.974-2.623-0.974-4.097c0-5.076,4.115-9.191,9.191-9.191
		s9.19,4.115,9.19,9.191S25.951,25.151,20.875,25.151z"/>
	<polygon fill="#FFFFFF" points="21.889,10.066 21.355,10.066 20.395,10.066 19.862,10.066 19.862,14.948 14.982,14.948 
		14.982,15.479 14.982,16.442 14.982,16.974 19.862,16.974 19.862,20.058 19.862,21.854 20.395,21.854 21.355,21.854 21.889,21.854 
		21.889,20.058 21.889,16.974 26.768,16.974 26.768,16.442 26.768,15.479 26.768,14.948 21.889,14.948 	"/>
</g>
</svg>
