<?xml version="1.0" encoding="utf-8"?>
<!-- Generator: Adobe Illustrator 16.0.0, SVG Export Plug-In . SVG Version: 6.00 Build 0)  -->
<!DOCTYPE svg PUBLIC "-//W3C//DTD SVG 1.1//EN" "http://www.w3.org/Graphics/SVG/1.1/DTD/svg11.dtd">
<svg version="1.1" id="Calque_1" xmlns="http://www.w3.org/2000/svg" xmlns:xlink="http://www.w3.org/1999/xlink" x="0px" y="0px"
	 width="59.719px" height="59.72px" viewBox="0 0 59.719 59.72" enable-background="new 0 0 59.719 59.72" xml:space="preserve">
<g>
	<path fill="#211E1E" d="M59.719,29.86L49.287,19.428l3.727-12.722l-12.723,3.726L29.859,0L19.427,10.433L6.704,6.706l3.727,12.723
		L0,29.86l10.431,10.431L6.704,53.014l12.724-3.727L29.859,59.72l10.432-10.432l12.723,3.727l-3.727-12.722L59.719,29.86z
		 M29.859,43.043c-7.281,0-13.183-5.902-13.183-13.184s5.901-13.184,13.183-13.184s13.183,5.902,13.183,13.184
		S37.141,43.043,29.859,43.043z"/>
	<polygon fill="#211E1E" points="31.093,21.204 30.566,21.204 29.153,21.204 28.626,21.204 28.626,28.629 21.203,28.629 
		21.203,29.153 21.203,30.566 21.203,31.091 28.626,31.091 28.626,38.517 29.153,38.517 30.566,38.517 31.093,38.517 31.093,31.091 
		38.516,31.091 38.516,30.566 38.516,29.153 38.516,28.629 31.093,28.629 	"/>
</g>
</svg>
