<?xml version="1.0" encoding="utf-8"?>
<!-- Generator: Adobe Illustrator 16.0.0, SVG Export Plug-In . SVG Version: 6.00 Build 0)  -->
<!DOCTYPE svg PUBLIC "-//W3C//DTD SVG 1.1//EN" "http://www.w3.org/Graphics/SVG/1.1/DTD/svg11.dtd">
<svg version="1.1" id="Calque_1" xmlns="http://www.w3.org/2000/svg" xmlns:xlink="http://www.w3.org/1999/xlink" x="0px" y="0px"
	 width="49.455px" height="59.72px" viewBox="0 0 49.455 59.72" enable-background="new 0 0 49.455 59.72" xml:space="preserve">
<g>
	<path fill="none" d="M29.859,16.676c-7.281,0-13.183,5.902-13.183,13.184c0,7.281,5.901,13.183,13.183,13.183
		s13.183-5.902,13.183-13.183C43.042,22.579,37.141,16.676,29.859,16.676z M38.516,29.153v1.413v0.525h-7.423v7.425h-0.526h-1.413
		h-0.527v-7.425h-7.423v-0.525v-1.413v-0.524h7.423v-7.425h0.527h1.413h0.526v7.425h7.423V29.153z"/>
	<polygon fill="#211E1E" points="31.093,21.204 30.566,21.204 29.153,21.204 28.626,21.204 28.626,28.629 21.203,28.629 
		21.203,29.153 21.203,30.566 21.203,31.092 28.626,31.092 28.626,38.517 29.153,38.517 30.566,38.517 31.093,38.517 31.093,31.092 
		38.516,31.092 38.516,30.566 38.516,29.153 38.516,28.629 31.093,28.629 	"/>
	<path fill="#211E1E" d="M29.859,0L19.427,10.433L6.704,6.706l3.727,12.723L0,29.86l10.431,10.431L6.704,53.014l12.724-3.727
		L29.859,59.72h19.596V0H29.859z M29.859,43.043c-7.281,0-13.183-5.902-13.183-13.183c0-7.281,5.901-13.184,13.183-13.184
		s13.183,5.902,13.183,13.184C43.042,37.141,37.141,43.043,29.859,43.043z"/>
</g>
</svg>
