<?xml version="1.0" encoding="utf-8"?>
<!-- Generator: Adobe Illustrator 16.0.0, SVG Export Plug-In . SVG Version: 6.00 Build 0)  -->
<!DOCTYPE svg PUBLIC "-//W3C//DTD SVG 1.1//EN" "http://www.w3.org/Graphics/SVG/1.1/DTD/svg11.dtd">
<svg version="1.1" id="Calque_1" xmlns="http://www.w3.org/2000/svg" xmlns:xlink="http://www.w3.org/1999/xlink" x="0px" y="0px"
	 width="37.938px" height="37.94px" viewBox="0 0 37.938 37.94" enable-background="new 0 0 37.938 37.94" xml:space="preserve">
<g>
	<path fill="#211E1E" d="M30.097,30.053l7.842-3.269l-3.271-7.845l3.242-7.857l-7.857-3.238L26.783,0l-7.845,3.267l-7.851-3.239
		L7.845,7.887L0,11.153L3.271,19l-3.246,7.857l7.861,3.238l3.269,7.845L19,34.673l7.857,3.236L30.097,30.053z M11.551,18.773
		l2.231-2.117l0.078-3.072l3.073,0.08l2.235-2.114l2.114,2.233l3.074,0.082l-0.085,3.072l2.116,2.229L24.16,21.28l-0.082,3.076
		l-3.072-0.081l-2.233,2.115l-2.117-2.233l-3.067-0.084l0.08-3.07L11.551,18.773z"/>
</g>
</svg>
